<svg width="1050" height="1195" viewBox="0 0 1050 1195" class="keymap" xmlns="http://www.w3.org/2000/svg" xmlns:xlink="http://www.w3.org/1999/xlink">
<style>/* inherit to force styles through use tags */
svg path {
    fill: inherit;
}

/* font and background color specifications */
svg.keymap {
    font-family: SFMono-Regular,Consolas,Liberation Mono,Menlo,monospace;
    font-size: 14px;
    font-kerning: normal;
    text-rendering: optimizeLegibility;
    fill: #24292e;
}

/* default key styling */
rect.key {
    fill: #f6f8fa;
}

rect.key, rect.combo {
    stroke: #c9cccf;
    stroke-width: 1;
}

/* default key side styling, only used is draw_key_sides is set */
rect.side {
    filter: brightness(90%);
}

/* color accent for combo boxes */
rect.combo, rect.combo-separate {
    fill: #cdf;
}

/* color accent for held keys */
rect.held, rect.combo.held {
    fill: #fdd;
}

/* color accent for ghost (optional) keys */
rect.ghost, rect.combo.ghost {
    stroke-dasharray: 4, 4;
    stroke-width: 2;
}

text {
    text-anchor: middle;
    dominant-baseline: middle;
}

/* styling for layer labels */
text.label {
    font-weight: bold;
    text-anchor: start;
    stroke: white;
    stroke-width: 4;
    paint-order: stroke;
}

/* styling for optional footer */
text.footer {
    text-anchor: end;
    dominant-baseline: auto;
    stroke: white;
    stroke-width: 4;
    paint-order: stroke;
}

/* styling for combo tap, and key hold/shifted label text */
text.combo, text.hold, text.shifted {
    font-size: 11px;
}

text.hold {
    text-anchor: middle;
    dominant-baseline: auto;
}

text.shifted {
    text-anchor: middle;
    dominant-baseline: hanging;
}

text.layer-activator {
    text-decoration: underline;
}

/* styling for hold/shifted label text in combo box */
text.combo.hold, text.combo.shifted {
    font-size: 8px;
}

/* lighter symbol for transparent keys */
text.trans {
    fill: #7b7e81;
}

/* styling for combo dendrons */
path.combo {
    stroke-width: 1;
    stroke: gray;
    fill: none;
}

/* Start Tabler Icons Cleanup */
/* cannot use height/width with glyphs */
.icon-tabler > path {
    fill: inherit;
    stroke: inherit;
    stroke-width: 2;
}
/* hide tabler's default box */
.icon-tabler > path[stroke="none"][fill="none"] {
    visibility: hidden;
}
/* End Tabler Icons Cleanup */

@media (prefers-color-scheme: dark) {
svg.keymap { fill: #d1d6db; }
rect.key { fill: #3f4750; }
rect.key, rect.combo { stroke: #60666c; }
rect.combo, rect.combo-separate { fill: #1f3d7a; }
rect.held, rect.combo.held { fill: #854747; }
text.label, text.footer { stroke: black; }
text.trans { fill: #7e8184; }
path.combo { stroke: #7f7f7f; }

}

svg.keymap { background-color: #FFF; }</style>
<g transform="translate(30, 0)" class="layer-L0">
<text x="0" y="28" class="label" id="L0">L0:</text>
<g transform="translate(0, 56)">
<g transform="translate(33, 58)" class="key keypos-0">
<rect rx="6" ry="6" x="-31" y="-31" width="62" height="62" class="key side"/>
<rect rx="4" ry="4" x="-25" y="-29" width="50" height="50" class="key"/>
<text x="0" y="-4" class="key tap">Tab</text>
</g>
<g transform="translate(99, 58)" class="key keypos-1">
<rect rx="6" ry="6" x="-31" y="-31" width="62" height="62" class="key side"/>
<rect rx="4" ry="4" x="-25" y="-29" width="50" height="50" class="key"/>
<text x="0" y="-4" class="key tap">Q</text>
</g>
<g transform="translate(165, 41)" class="key keypos-2">
<rect rx="6" ry="6" x="-31" y="-31" width="62" height="62" class="key side"/>
<rect rx="4" ry="4" x="-25" y="-29" width="50" height="50" class="key"/>
<text x="0" y="-4" class="key tap">W</text>
</g>
<g transform="translate(231, 33)" class="key keypos-3">
<rect rx="6" ry="6" x="-31" y="-31" width="62" height="62" class="key side"/>
<rect rx="4" ry="4" x="-25" y="-29" width="50" height="50" class="key"/>
<text x="0" y="-4" class="key tap">E</text>
</g>
<g transform="translate(297, 41)" class="key keypos-4">
<rect rx="6" ry="6" x="-31" y="-31" width="62" height="62" class="key side"/>
<rect rx="4" ry="4" x="-25" y="-29" width="50" height="50" class="key"/>
<text x="0" y="-4" class="key tap">R</text>
</g>
<g transform="translate(363, 50)" class="key keypos-5">
<rect rx="6" ry="6" x="-31" y="-31" width="62" height="62" class="key side"/>
<rect rx="4" ry="4" x="-25" y="-29" width="50" height="50" class="key"/>
<text x="0" y="-4" class="key tap">T</text>
</g>
<g transform="translate(627, 50)" class="key keypos-6">
<rect rx="6" ry="6" x="-31" y="-31" width="62" height="62" class="key side"/>
<rect rx="4" ry="4" x="-25" y="-29" width="50" height="50" class="key"/>
<text x="0" y="-4" class="key tap">Y</text>
</g>
<g transform="translate(693, 41)" class="key keypos-7">
<rect rx="6" ry="6" x="-31" y="-31" width="62" height="62" class="key side"/>
<rect rx="4" ry="4" x="-25" y="-29" width="50" height="50" class="key"/>
<text x="0" y="-4" class="key tap">U</text>
</g>
<g transform="translate(759, 33)" class="key keypos-8">
<rect rx="6" ry="6" x="-31" y="-31" width="62" height="62" class="key side"/>
<rect rx="4" ry="4" x="-25" y="-29" width="50" height="50" class="key"/>
<text x="0" y="-4" class="key tap">I</text>
</g>
<g transform="translate(825, 41)" class="key keypos-9">
<rect rx="6" ry="6" x="-31" y="-31" width="62" height="62" class="key side"/>
<rect rx="4" ry="4" x="-25" y="-29" width="50" height="50" class="key"/>
<text x="0" y="-4" class="key tap">O</text>
</g>
<g transform="translate(891, 58)" class="key keypos-10">
<rect rx="6" ry="6" x="-31" y="-31" width="62" height="62" class="key side"/>
<rect rx="4" ry="4" x="-25" y="-29" width="50" height="50" class="key"/>
<text x="0" y="-4" class="key tap">P</text>
</g>
<g transform="translate(957, 58)" class="key keypos-11">
<rect rx="6" ry="6" x="-31" y="-31" width="62" height="62" class="key side"/>
<rect rx="4" ry="4" x="-25" y="-29" width="50" height="50" class="key"/>
<text x="0" y="-4" class="key tap">\</text>
<text x="0" y="-29" class="key shifted">|</text>
</g>
<g transform="translate(33, 124)" class="key keypos-12">
<rect rx="6" ry="6" x="-31" y="-31" width="62" height="62" class="key side"/>
<rect rx="4" ry="4" x="-25" y="-29" width="50" height="50" class="key"/>
<text x="0" y="-4" class="key tap">LCtrl</text>
</g>
<g transform="translate(99, 124)" class="key keypos-13">
<rect rx="6" ry="6" x="-31" y="-31" width="62" height="62" class="key side"/>
<rect rx="4" ry="4" x="-25" y="-29" width="50" height="50" class="key"/>
<text x="0" y="-4" class="key tap">A</text>
</g>
<g transform="translate(165, 107)" class="key keypos-14">
<rect rx="6" ry="6" x="-31" y="-31" width="62" height="62" class="key side"/>
<rect rx="4" ry="4" x="-25" y="-29" width="50" height="50" class="key"/>
<text x="0" y="-4" class="key tap">S</text>
</g>
<g transform="translate(231, 99)" class="key keypos-15">
<rect rx="6" ry="6" x="-31" y="-31" width="62" height="62" class="key side"/>
<rect rx="4" ry="4" x="-25" y="-29" width="50" height="50" class="key"/>
<text x="0" y="-4" class="key tap">D</text>
</g>
<g transform="translate(297, 107)" class="key keypos-16">
<rect rx="6" ry="6" x="-31" y="-31" width="62" height="62" class="key side"/>
<rect rx="4" ry="4" x="-25" y="-29" width="50" height="50" class="key"/>
<text x="0" y="-4" class="key tap">F</text>
</g>
<g transform="translate(363, 116)" class="key keypos-17">
<rect rx="6" ry="6" x="-31" y="-31" width="62" height="62" class="key side"/>
<rect rx="4" ry="4" x="-25" y="-29" width="50" height="50" class="key"/>
<text x="0" y="-4" class="key tap">G</text>
</g>
<g transform="translate(627, 116)" class="key keypos-18">
<rect rx="6" ry="6" x="-31" y="-31" width="62" height="62" class="key side"/>
<rect rx="4" ry="4" x="-25" y="-29" width="50" height="50" class="key"/>
<text x="0" y="-4" class="key tap">H</text>
</g>
<g transform="translate(693, 107)" class="key keypos-19">
<rect rx="6" ry="6" x="-31" y="-31" width="62" height="62" class="key side"/>
<rect rx="4" ry="4" x="-25" y="-29" width="50" height="50" class="key"/>
<text x="0" y="-4" class="key tap">J</text>
</g>
<g transform="translate(759, 99)" class="key keypos-20">
<rect rx="6" ry="6" x="-31" y="-31" width="62" height="62" class="key side"/>
<rect rx="4" ry="4" x="-25" y="-29" width="50" height="50" class="key"/>
<text x="0" y="-4" class="key tap">K</text>
</g>
<g transform="translate(825, 107)" class="key keypos-21">
<rect rx="6" ry="6" x="-31" y="-31" width="62" height="62" class="key side"/>
<rect rx="4" ry="4" x="-25" y="-29" width="50" height="50" class="key"/>
<text x="0" y="-4" class="key tap">L</text>
</g>
<g transform="translate(891, 124)" class="key keypos-22">
<rect rx="6" ry="6" x="-31" y="-31" width="62" height="62" class="key side"/>
<rect rx="4" ry="4" x="-25" y="-29" width="50" height="50" class="key"/>
<text x="0" y="-4" class="key tap">;</text>
<text x="0" y="-29" class="key shifted">:</text>
</g>
<g transform="translate(957, 124)" class="key keypos-23">
<rect rx="6" ry="6" x="-31" y="-31" width="62" height="62" class="key side"/>
<rect rx="4" ry="4" x="-25" y="-29" width="50" height="50" class="key"/>
<text x="0" y="-4" class="key tap">Enter</text>
</g>
<g transform="translate(33, 190)" class="key keypos-24">
<rect rx="6" ry="6" x="-31" y="-31" width="62" height="62" class="key side"/>
<rect rx="4" ry="4" x="-25" y="-29" width="50" height="50" class="key"/>
<text x="0" y="-4" class="key tap">LShift</text>
</g>
<g transform="translate(99, 190)" class="key keypos-25">
<rect rx="6" ry="6" x="-31" y="-31" width="62" height="62" class="key side"/>
<rect rx="4" ry="4" x="-25" y="-29" width="50" height="50" class="key"/>
<text x="0" y="-4" class="key tap">Z</text>
</g>
<g transform="translate(165, 173)" class="key keypos-26">
<rect rx="6" ry="6" x="-31" y="-31" width="62" height="62" class="key side"/>
<rect rx="4" ry="4" x="-25" y="-29" width="50" height="50" class="key"/>
<text x="0" y="-4" class="key tap">X</text>
</g>
<g transform="translate(231, 165)" class="key keypos-27">
<rect rx="6" ry="6" x="-31" y="-31" width="62" height="62" class="key side"/>
<rect rx="4" ry="4" x="-25" y="-29" width="50" height="50" class="key"/>
<text x="0" y="-4" class="key tap">C</text>
</g>
<g transform="translate(297, 173)" class="key keypos-28">
<rect rx="6" ry="6" x="-31" y="-31" width="62" height="62" class="key side"/>
<rect rx="4" ry="4" x="-25" y="-29" width="50" height="50" class="key"/>
<text x="0" y="-4" class="key tap">V</text>
</g>
<g transform="translate(363, 182)" class="key keypos-29">
<rect rx="6" ry="6" x="-31" y="-31" width="62" height="62" class="key side"/>
<rect rx="4" ry="4" x="-25" y="-29" width="50" height="50" class="key"/>
<text x="0" y="-4" class="key tap">B</text>
</g>
<g transform="translate(627, 182)" class="key keypos-30">
<rect rx="6" ry="6" x="-31" y="-31" width="62" height="62" class="key side"/>
<rect rx="4" ry="4" x="-25" y="-29" width="50" height="50" class="key"/>
<text x="0" y="-4" class="key tap">N</text>
</g>
<g transform="translate(693, 173)" class="key keypos-31">
<rect rx="6" ry="6" x="-31" y="-31" width="62" height="62" class="key side"/>
<rect rx="4" ry="4" x="-25" y="-29" width="50" height="50" class="key"/>
<text x="0" y="-4" class="key tap">M</text>
</g>
<g transform="translate(759, 165)" class="key keypos-32">
<rect rx="6" ry="6" x="-31" y="-31" width="62" height="62" class="key side"/>
<rect rx="4" ry="4" x="-25" y="-29" width="50" height="50" class="key"/>
<text x="0" y="-4" class="key tap">,</text>
<text x="0" y="-29" class="key shifted">&lt;</text>
</g>
<g transform="translate(825, 173)" class="key keypos-33">
<rect rx="6" ry="6" x="-31" y="-31" width="62" height="62" class="key side"/>
<rect rx="4" ry="4" x="-25" y="-29" width="50" height="50" class="key"/>
<text x="0" y="-4" class="key tap">.</text>
<text x="0" y="-29" class="key shifted">&gt;</text>
</g>
<g transform="translate(891, 190)" class="key keypos-34">
<rect rx="6" ry="6" x="-31" y="-31" width="62" height="62" class="key side"/>
<rect rx="4" ry="4" x="-25" y="-29" width="50" height="50" class="key"/>
<text x="0" y="-4" class="key tap">/</text>
<text x="0" y="-29" class="key shifted">?</text>
</g>
<g transform="translate(957, 190)" class="key keypos-35">
<rect rx="6" ry="6" x="-31" y="-31" width="62" height="62" class="key side"/>
<rect rx="4" ry="4" x="-25" y="-29" width="50" height="50" class="key"/>
<text x="0" y="-4" class="key tap">RShift</text>
</g>
<g transform="translate(264, 241)" class="key keypos-36">
<rect rx="6" ry="6" x="-31" y="-31" width="62" height="62" class="key side"/>
<rect rx="4" ry="4" x="-25" y="-29" width="50" height="50" class="key"/>
<text x="0" y="-4" class="key tap">LGui</text>
</g>
<g transform="translate(337, 251) rotate(15.0)" class="key keypos-37">
<rect rx="6" ry="6" x="-31" y="-31" width="62" height="62" class="key side"/>
<rect rx="4" ry="4" x="-25" y="-29" width="50" height="50" class="key"/>
<text x="0" y="-4" class="key tap">Space</text>
</g>
<g transform="translate(414, 264) rotate(30.0)" class="key held keypos-38">
<rect rx="6" ry="6" x="-31" y="-48" width="62" height="95" class="key held side"/>
<rect rx="4" ry="4" x="-25" y="-46" width="50" height="83" class="key held"/>
<text x="0" y="-4" class="key held tap">
<tspan x="0" dy="-0.6em">MO</tspan><tspan x="0" dy="1.2em">L1</tspan>
</text>
</g>
<g transform="translate(576, 264) rotate(-30.0)" class="key keypos-39">
<rect rx="6" ry="6" x="-31" y="-48" width="62" height="95" class="key side"/>
<rect rx="4" ry="4" x="-25" y="-46" width="50" height="83" class="key"/>
<text x="0" y="-4" class="key tap">
<tspan x="0" dy="-0.6em">TO</tspan><tspan x="0" dy="1.2em">L1</tspan>
</text>
</g>
<g transform="translate(653, 251) rotate(-15.0)" class="key keypos-40">
<rect rx="6" ry="6" x="-31" y="-31" width="62" height="62" class="key side"/>
<rect rx="4" ry="4" x="-25" y="-29" width="50" height="50" class="key"/>
<text x="0" y="-4" class="key tap">Bksp</text>
</g>
<g transform="translate(726, 241)" class="key keypos-41">
<rect rx="6" ry="6" x="-31" y="-31" width="62" height="62" class="key side"/>
<rect rx="4" ry="4" x="-25" y="-29" width="50" height="50" class="key"/>
<text x="0" y="-4" class="key tap">RGui</text>
</g>
<g class="combo combopos-0">
<rect rx="6" ry="6" x="113" y="32" width="38" height="36" class="combo"/>
<text x="132" y="50" class="combo tap">Esc</text>
</g>
<g class="combo combopos-1">
<rect rx="6" ry="6" x="311" y="27" width="38" height="36" class="combo"/>
<text x="330" y="45" class="combo tap">(</text>
<text x="330" y="29" class="combo shifted">LSFT+</text>
</g>
<g class="combo combopos-2">
<rect rx="6" ry="6" x="641" y="27" width="38" height="36" class="combo"/>
<text x="660" y="45" class="combo tap">)</text>
<text x="660" y="29" class="combo shifted">LSFT+</text>
</g>
<g class="combo combopos-3">
<rect rx="6" ry="6" x="311" y="93" width="38" height="36" class="combo"/>
<text x="330" y="111" class="combo tap">[</text>
<text x="330" y="95" class="combo shifted">{</text>
</g>
<g class="combo combopos-4">
<rect rx="6" ry="6" x="641" y="93" width="38" height="36" class="combo"/>
<text x="660" y="111" class="combo tap">]</text>
<text x="660" y="95" class="combo shifted">}</text>
</g>
<g class="combo combopos-5">
<rect rx="6" ry="6" x="311" y="159" width="38" height="36" class="combo"/>
<text x="330" y="177" class="combo tap">{</text>
<text x="330" y="161" class="combo shifted">LSFT+</text>
</g>
<g class="combo combopos-6">
<rect rx="6" ry="6" x="641" y="159" width="38" height="36" class="combo"/>
<text x="660" y="177" class="combo tap">}</text>
<text x="660" y="161" class="combo shifted">LSFT+</text>
</g>
<g class="combo combopos-7">
<path d="M495,264 l-59,0" class="combo"/>
<path d="M495,264 l59,0" class="combo"/>
<rect rx="6" ry="6" x="476" y="246" width="38" height="36" class="combo"/>
<text x="495" y="264" class="combo tap">
<tspan x="495" dy="-0.6em">TO</tspan><tspan x="495" dy="1.2em">L2</tspan>
</text>
</g>
</g>
</g>
<g transform="translate(30, 380)" class="layer-L1">
<text x="0" y="28" class="label" id="L1">L1:</text>
<g transform="translate(0, 56)">
<g transform="translate(33, 58)" class="key keypos-0">
<rect rx="6" ry="6" x="-31" y="-31" width="62" height="62" class="key side"/>
<rect rx="4" ry="4" x="-25" y="-29" width="50" height="50" class="key"/>
<text x="0" y="-4" class="key tap">`</text>
<text x="0" y="-29" class="key shifted">~</text>
</g>
<g transform="translate(99, 58)" class="key keypos-1">
<rect rx="6" ry="6" x="-31" y="-31" width="62" height="62" class="key side"/>
<rect rx="4" ry="4" x="-25" y="-29" width="50" height="50" class="key"/>
<text x="0" y="-4" class="key tap">1</text>
<text x="0" y="-29" class="key shifted">!</text>
</g>
<g transform="translate(165, 41)" class="key keypos-2">
<rect rx="6" ry="6" x="-31" y="-31" width="62" height="62" class="key side"/>
<rect rx="4" ry="4" x="-25" y="-29" width="50" height="50" class="key"/>
<text x="0" y="-4" class="key tap">2</text>
<text x="0" y="-29" class="key shifted">@</text>
</g>
<g transform="translate(231, 33)" class="key keypos-3">
<rect rx="6" ry="6" x="-31" y="-31" width="62" height="62" class="key side"/>
<rect rx="4" ry="4" x="-25" y="-29" width="50" height="50" class="key"/>
<text x="0" y="-4" class="key tap">3</text>
<text x="0" y="-29" class="key shifted">#</text>
</g>
<g transform="translate(297, 41)" class="key keypos-4">
<rect rx="6" ry="6" x="-31" y="-31" width="62" height="62" class="key side"/>
<rect rx="4" ry="4" x="-25" y="-29" width="50" height="50" class="key"/>
<text x="0" y="-4" class="key tap">4</text>
<text x="0" y="-29" class="key shifted">$</text>
</g>
<g transform="translate(363, 50)" class="key keypos-5">
<rect rx="6" ry="6" x="-31" y="-31" width="62" height="62" class="key side"/>
<rect rx="4" ry="4" x="-25" y="-29" width="50" height="50" class="key"/>
<text x="0" y="-4" class="key tap">5</text>
<text x="0" y="-29" class="key shifted">%</text>
</g>
<g transform="translate(627, 50)" class="key keypos-6">
<rect rx="6" ry="6" x="-31" y="-31" width="62" height="62" class="key side"/>
<rect rx="4" ry="4" x="-25" y="-29" width="50" height="50" class="key"/>
<text x="0" y="-4" class="key tap">6</text>
<text x="0" y="-29" class="key shifted">^</text>
</g>
<g transform="translate(693, 41)" class="key keypos-7">
<rect rx="6" ry="6" x="-31" y="-31" width="62" height="62" class="key side"/>
<rect rx="4" ry="4" x="-25" y="-29" width="50" height="50" class="key"/>
<text x="0" y="-4" class="key tap">7</text>
<text x="0" y="-29" class="key shifted">&amp;</text>
</g>
<g transform="translate(759, 33)" class="key keypos-8">
<rect rx="6" ry="6" x="-31" y="-31" width="62" height="62" class="key side"/>
<rect rx="4" ry="4" x="-25" y="-29" width="50" height="50" class="key"/>
<text x="0" y="-4" class="key tap">8</text>
<text x="0" y="-29" class="key shifted">*</text>
</g>
<g transform="translate(825, 41)" class="key keypos-9">
<rect rx="6" ry="6" x="-31" y="-31" width="62" height="62" class="key side"/>
<rect rx="4" ry="4" x="-25" y="-29" width="50" height="50" class="key"/>
<text x="0" y="-4" class="key tap">9</text>
<text x="0" y="-29" class="key shifted">(</text>
</g>
<g transform="translate(891, 58)" class="key keypos-10">
<rect rx="6" ry="6" x="-31" y="-31" width="62" height="62" class="key side"/>
<rect rx="4" ry="4" x="-25" y="-29" width="50" height="50" class="key"/>
<text x="0" y="-4" class="key tap">0</text>
<text x="0" y="-29" class="key shifted">)</text>
</g>
<g transform="translate(957, 58)" class="key keypos-11">
<rect rx="6" ry="6" x="-31" y="-31" width="62" height="62" class="key side"/>
<rect rx="4" ry="4" x="-25" y="-29" width="50" height="50" class="key"/>
<text x="0" y="-4" class="key tap">-</text>
<text x="0" y="-29" class="key shifted">_</text>
</g>
<g transform="translate(33, 124)" class="key keypos-12">
<rect rx="6" ry="6" x="-31" y="-31" width="62" height="62" class="key side"/>
<rect rx="4" ry="4" x="-25" y="-29" width="50" height="50" class="key"/>
<text x="0" y="-4" class="key tap">LCtrl</text>
</g>
<g transform="translate(99, 124)" class="key keypos-13">
<rect rx="6" ry="6" x="-31" y="-31" width="62" height="62" class="key side"/>
<rect rx="4" ry="4" x="-25" y="-29" width="50" height="50" class="key"/>
</g>
<g transform="translate(165, 107)" class="key keypos-14">
<rect rx="6" ry="6" x="-31" y="-31" width="62" height="62" class="key side"/>
<rect rx="4" ry="4" x="-25" y="-29" width="50" height="50" class="key"/>
<text x="0" y="-4" class="key tap">-</text>
<text x="0" y="-29" class="key shifted">_</text>
</g>
<g transform="translate(231, 99)" class="key keypos-15">
<rect rx="6" ry="6" x="-31" y="-31" width="62" height="62" class="key side"/>
<rect rx="4" ry="4" x="-25" y="-29" width="50" height="50" class="key"/>
<text x="0" y="-4" class="key tap">=</text>
<text x="0" y="-29" class="key shifted">+</text>
</g>
<g transform="translate(297, 107)" class="key keypos-16">
<rect rx="6" ry="6" x="-31" y="-31" width="62" height="62" class="key side"/>
<rect rx="4" ry="4" x="-25" y="-29" width="50" height="50" class="key"/>
<text x="0" y="-4" class="key tap">;</text>
<text x="0" y="-29" class="key shifted">:</text>
</g>
<g transform="translate(363, 116)" class="key keypos-17">
<rect rx="6" ry="6" x="-31" y="-31" width="62" height="62" class="key side"/>
<rect rx="4" ry="4" x="-25" y="-29" width="50" height="50" class="key"/>
<text x="0" y="-4" class="key tap">&#x27;</text>
<text x="0" y="-29" class="key shifted">&quot;</text>
</g>
<g transform="translate(627, 116)" class="key keypos-18">
<rect rx="6" ry="6" x="-31" y="-31" width="62" height="62" class="key side"/>
<rect rx="4" ry="4" x="-25" y="-29" width="50" height="50" class="key"/>
<text x="0" y="-4" class="key tap">Left</text>
</g>
<g transform="translate(693, 107)" class="key keypos-19">
<rect rx="6" ry="6" x="-31" y="-31" width="62" height="62" class="key side"/>
<rect rx="4" ry="4" x="-25" y="-29" width="50" height="50" class="key"/>
<text x="0" y="-4" class="key tap">Up</text>
</g>
<g transform="translate(759, 99)" class="key keypos-20">
<rect rx="6" ry="6" x="-31" y="-31" width="62" height="62" class="key side"/>
<rect rx="4" ry="4" x="-25" y="-29" width="50" height="50" class="key"/>
<text x="0" y="-4" class="key tap">Down</text>
</g>
<g transform="translate(825, 107)" class="key keypos-21">
<rect rx="6" ry="6" x="-31" y="-31" width="62" height="62" class="key side"/>
<rect rx="4" ry="4" x="-25" y="-29" width="50" height="50" class="key"/>
<text x="0" y="-4" class="key tap">Right</text>
</g>
<g transform="translate(891, 124)" class="key keypos-22">
<rect rx="6" ry="6" x="-31" y="-31" width="62" height="62" class="key side"/>
<rect rx="4" ry="4" x="-25" y="-29" width="50" height="50" class="key"/>
</g>
<g transform="translate(957, 124)" class="key keypos-23">
<rect rx="6" ry="6" x="-31" y="-31" width="62" height="62" class="key side"/>
<rect rx="4" ry="4" x="-25" y="-29" width="50" height="50" class="key"/>
<text x="0" y="-4" class="key tap">Enter</text>
</g>
<g transform="translate(33, 190)" class="key keypos-24">
<rect rx="6" ry="6" x="-31" y="-31" width="62" height="62" class="key side"/>
<rect rx="4" ry="4" x="-25" y="-29" width="50" height="50" class="key"/>
<text x="0" y="-4" class="key tap">LShift</text>
</g>
<g transform="translate(99, 190)" class="key keypos-25">
<rect rx="6" ry="6" x="-31" y="-31" width="62" height="62" class="key side"/>
<rect rx="4" ry="4" x="-25" y="-29" width="50" height="50" class="key"/>
</g>
<g transform="translate(165, 173)" class="key keypos-26">
<rect rx="6" ry="6" x="-31" y="-31" width="62" height="62" class="key side"/>
<rect rx="4" ry="4" x="-25" y="-29" width="50" height="50" class="key"/>
<text x="0" y="-4" class="key tap">_</text>
<text x="0" y="-29" class="key shifted">LSFT+</text>
</g>
<g transform="translate(231, 165)" class="key keypos-27">
<rect rx="6" ry="6" x="-31" y="-31" width="62" height="62" class="key side"/>
<rect rx="4" ry="4" x="-25" y="-29" width="50" height="50" class="key"/>
<text x="0" y="-4" class="key tap">+</text>
<text x="0" y="-29" class="key shifted">LSFT+</text>
</g>
<g transform="translate(297, 173)" class="key keypos-28">
<rect rx="6" ry="6" x="-31" y="-31" width="62" height="62" class="key side"/>
<rect rx="4" ry="4" x="-25" y="-29" width="50" height="50" class="key"/>
<text x="0" y="-4" class="key tap">:</text>
<text x="0" y="-29" class="key shifted">LSFT+</text>
</g>
<g transform="translate(363, 182)" class="key keypos-29">
<rect rx="6" ry="6" x="-31" y="-31" width="62" height="62" class="key side"/>
<rect rx="4" ry="4" x="-25" y="-29" width="50" height="50" class="key"/>
<text x="0" y="-4" class="key tap">&quot;</text>
<text x="0" y="-29" class="key shifted">LSFT+</text>
</g>
<g transform="translate(627, 182)" class="key keypos-30">
<rect rx="6" ry="6" x="-31" y="-31" width="62" height="62" class="key side"/>
<rect rx="4" ry="4" x="-25" y="-29" width="50" height="50" class="key"/>
<text x="0" y="-4" class="key tap">Home</text>
</g>
<g transform="translate(693, 173)" class="key keypos-31">
<rect rx="6" ry="6" x="-31" y="-31" width="62" height="62" class="key side"/>
<rect rx="4" ry="4" x="-25" y="-29" width="50" height="50" class="key"/>
<text x="0" y="-4" class="key tap">
<tspan x="0" dy="-0.6em">Page</tspan><tspan x="0" dy="1.2em">Up</tspan>
</text>
</g>
<g transform="translate(759, 165)" class="key keypos-32">
<rect rx="6" ry="6" x="-31" y="-31" width="62" height="62" class="key side"/>
<rect rx="4" ry="4" x="-25" y="-29" width="50" height="50" class="key"/>
<text x="0" y="-4" class="key tap">
<tspan x="0" dy="-0.6em">Page</tspan><tspan x="0" dy="1.2em">Down</tspan>
</text>
</g>
<g transform="translate(825, 173)" class="key keypos-33">
<rect rx="6" ry="6" x="-31" y="-31" width="62" height="62" class="key side"/>
<rect rx="4" ry="4" x="-25" y="-29" width="50" height="50" class="key"/>
<text x="0" y="-4" class="key tap">End</text>
</g>
<g transform="translate(891, 190)" class="key keypos-34">
<rect rx="6" ry="6" x="-31" y="-31" width="62" height="62" class="key side"/>
<rect rx="4" ry="4" x="-25" y="-29" width="50" height="50" class="key"/>
</g>
<g transform="translate(957, 190)" class="key keypos-35">
<rect rx="6" ry="6" x="-31" y="-31" width="62" height="62" class="key side"/>
<rect rx="4" ry="4" x="-25" y="-29" width="50" height="50" class="key"/>
<text x="0" y="-4" class="key tap">RShift</text>
</g>
<g transform="translate(264, 241)" class="key keypos-36">
<rect rx="6" ry="6" x="-31" y="-31" width="62" height="62" class="key side"/>
<rect rx="4" ry="4" x="-25" y="-29" width="50" height="50" class="key"/>
<text x="0" y="-4" class="key tap">LGui</text>
</g>
<g transform="translate(337, 251) rotate(15.0)" class="key keypos-37">
<rect rx="6" ry="6" x="-31" y="-31" width="62" height="62" class="key side"/>
<rect rx="4" ry="4" x="-25" y="-29" width="50" height="50" class="key"/>
<text x="0" y="-4" class="key tap">Space</text>
</g>
<g transform="translate(414, 264) rotate(30.0)" class="key held keypos-38">
<rect rx="6" ry="6" x="-31" y="-48" width="62" height="95" class="key held side"/>
<rect rx="4" ry="4" x="-25" y="-46" width="50" height="83" class="key held"/>
<text x="0" y="-4" class="key held tap">
<tspan x="0" dy="-0.6em">MO</tspan><tspan x="0" dy="1.2em">L0</tspan>
</text>
</g>
<g transform="translate(576, 264) rotate(-30.0)" class="key keypos-39">
<rect rx="6" ry="6" x="-31" y="-48" width="62" height="95" class="key side"/>
<rect rx="4" ry="4" x="-25" y="-46" width="50" height="83" class="key"/>
<text x="0" y="-4" class="key tap">
<tspan x="0" dy="-0.6em">TO</tspan><tspan x="0" dy="1.2em">L0</tspan>
</text>
</g>
<g transform="translate(653, 251) rotate(-15.0)" class="key keypos-40">
<rect rx="6" ry="6" x="-31" y="-31" width="62" height="62" class="key side"/>
<rect rx="4" ry="4" x="-25" y="-29" width="50" height="50" class="key"/>
<text x="0" y="-4" class="key tap">Bksp</text>
</g>
<g transform="translate(726, 241)" class="key keypos-41">
<rect rx="6" ry="6" x="-31" y="-31" width="62" height="62" class="key side"/>
<rect rx="4" ry="4" x="-25" y="-29" width="50" height="50" class="key"/>
<text x="0" y="-4" class="key tap">RGui</text>
</g>
<g class="combo combopos-0">
<rect rx="6" ry="6" x="113" y="32" width="38" height="36" class="combo"/>
<text x="132" y="50" class="combo tap">Esc</text>
</g>
<g class="combo combopos-1">
<rect rx="6" ry="6" x="311" y="27" width="38" height="36" class="combo"/>
<text x="330" y="45" class="combo tap">(</text>
<text x="330" y="29" class="combo shifted">LSFT+</text>
</g>
<g class="combo combopos-2">
<rect rx="6" ry="6" x="641" y="27" width="38" height="36" class="combo"/>
<text x="660" y="45" class="combo tap">)</text>
<text x="660" y="29" class="combo shifted">LSFT+</text>
</g>
<g class="combo combopos-3">
<rect rx="6" ry="6" x="311" y="93" width="38" height="36" class="combo"/>
<text x="330" y="111" class="combo tap">[</text>
<text x="330" y="95" class="combo shifted">{</text>
</g>
<g class="combo combopos-4">
<rect rx="6" ry="6" x="641" y="93" width="38" height="36" class="combo"/>
<text x="660" y="111" class="combo tap">]</text>
<text x="660" y="95" class="combo shifted">}</text>
</g>
<g class="combo combopos-5">
<rect rx="6" ry="6" x="311" y="159" width="38" height="36" class="combo"/>
<text x="330" y="177" class="combo tap">{</text>
<text x="330" y="161" class="combo shifted">LSFT+</text>
</g>
<g class="combo combopos-6">
<rect rx="6" ry="6" x="641" y="159" width="38" height="36" class="combo"/>
<text x="660" y="177" class="combo tap">}</text>
<text x="660" y="161" class="combo shifted">LSFT+</text>
</g>
<g class="combo combopos-7">
<path d="M495,264 l-59,0" class="combo"/>
<path d="M495,264 l59,0" class="combo"/>
<rect rx="6" ry="6" x="476" y="246" width="38" height="36" class="combo"/>
<text x="495" y="264" class="combo tap">
<tspan x="495" dy="-0.6em">TO</tspan><tspan x="495" dy="1.2em">L2</tspan>
</text>
</g>
</g>
</g>
<g transform="translate(30, 759)" class="layer-L2">
<text x="0" y="28" class="label" id="L2">L2:</text>
<g transform="translate(0, 56)">
<g transform="translate(33, 58)" class="key keypos-0">
<rect rx="6" ry="6" x="-31" y="-31" width="62" height="62" class="key side"/>
<rect rx="4" ry="4" x="-25" y="-29" width="50" height="50" class="key"/>
<text x="0" y="-4" class="key tap">Esc</text>
</g>
<g transform="translate(99, 58)" class="key keypos-1">
<rect rx="6" ry="6" x="-31" y="-31" width="62" height="62" class="key side"/>
<rect rx="4" ry="4" x="-25" y="-29" width="50" height="50" class="key"/>
<text x="0" y="-4" class="key tap">F10</text>
</g>
<g transform="translate(165, 41)" class="key keypos-2">
<rect rx="6" ry="6" x="-31" y="-31" width="62" height="62" class="key side"/>
<rect rx="4" ry="4" x="-25" y="-29" width="50" height="50" class="key"/>
<text x="0" y="-4" class="key tap">F7</text>
</g>
<g transform="translate(231, 33)" class="key keypos-3">
<rect rx="6" ry="6" x="-31" y="-31" width="62" height="62" class="key side"/>
<rect rx="4" ry="4" x="-25" y="-29" width="50" height="50" class="key"/>
<text x="0" y="-4" class="key tap">F8</text>
</g>
<g transform="translate(297, 41)" class="key keypos-4">
<rect rx="6" ry="6" x="-31" y="-31" width="62" height="62" class="key side"/>
<rect rx="4" ry="4" x="-25" y="-29" width="50" height="50" class="key"/>
<text x="0" y="-4" class="key tap">F9</text>
</g>
<g transform="translate(363, 50)" class="key keypos-5">
<rect rx="6" ry="6" x="-31" y="-31" width="62" height="62" class="key side"/>
<rect rx="4" ry="4" x="-25" y="-29" width="50" height="50" class="key"/>
<text x="0" y="-4" class="key tap">,</text>
</g>
<g transform="translate(627, 50)" class="key keypos-6">
<rect rx="6" ry="6" x="-31" y="-31" width="62" height="62" class="key side"/>
<rect rx="4" ry="4" x="-25" y="-29" width="50" height="50" class="key"/>
<text x="0" y="-4" class="key tap">,</text>
</g>
<g transform="translate(693, 41)" class="key keypos-7">
<rect rx="6" ry="6" x="-31" y="-31" width="62" height="62" class="key side"/>
<rect rx="4" ry="4" x="-25" y="-29" width="50" height="50" class="key"/>
<text x="0" y="-4" class="key tap">7</text>
</g>
<g transform="translate(759, 33)" class="key keypos-8">
<rect rx="6" ry="6" x="-31" y="-31" width="62" height="62" class="key side"/>
<rect rx="4" ry="4" x="-25" y="-29" width="50" height="50" class="key"/>
<text x="0" y="-4" class="key tap">8</text>
</g>
<g transform="translate(825, 41)" class="key keypos-9">
<rect rx="6" ry="6" x="-31" y="-31" width="62" height="62" class="key side"/>
<rect rx="4" ry="4" x="-25" y="-29" width="50" height="50" class="key"/>
<text x="0" y="-4" class="key tap">9</text>
</g>
<g transform="translate(891, 58)" class="key keypos-10">
<rect rx="6" ry="6" x="-31" y="-31" width="62" height="62" class="key side"/>
<rect rx="4" ry="4" x="-25" y="-29" width="50" height="50" class="key"/>
<text x="0" y="-4" class="key tap">+</text>
</g>
<g transform="translate(957, 58)" class="key keypos-11">
<rect rx="6" ry="6" x="-31" y="-31" width="62" height="62" class="key side"/>
<rect rx="4" ry="4" x="-25" y="-29" width="50" height="50" class="key"/>
<text x="0" y="-4" class="key tap">-</text>
</g>
<g transform="translate(33, 124)" class="key keypos-12">
<rect rx="6" ry="6" x="-31" y="-31" width="62" height="62" class="key side"/>
<rect rx="4" ry="4" x="-25" y="-29" width="50" height="50" class="key"/>
<text x="0" y="-4" class="key tap">LCtrl</text>
</g>
<g transform="translate(99, 124)" class="key keypos-13">
<rect rx="6" ry="6" x="-31" y="-31" width="62" height="62" class="key side"/>
<rect rx="4" ry="4" x="-25" y="-29" width="50" height="50" class="key"/>
<text x="0" y="-4" class="key tap">F11</text>
</g>
<g transform="translate(165, 107)" class="key keypos-14">
<rect rx="6" ry="6" x="-31" y="-31" width="62" height="62" class="key side"/>
<rect rx="4" ry="4" x="-25" y="-29" width="50" height="50" class="key"/>
<text x="0" y="-4" class="key tap">F4</text>
</g>
<g transform="translate(231, 99)" class="key keypos-15">
<rect rx="6" ry="6" x="-31" y="-31" width="62" height="62" class="key side"/>
<rect rx="4" ry="4" x="-25" y="-29" width="50" height="50" class="key"/>
<text x="0" y="-4" class="key tap">F5</text>
</g>
<g transform="translate(297, 107)" class="key keypos-16">
<rect rx="6" ry="6" x="-31" y="-31" width="62" height="62" class="key side"/>
<rect rx="4" ry="4" x="-25" y="-29" width="50" height="50" class="key"/>
<text x="0" y="-4" class="key tap">F6</text>
</g>
<g transform="translate(363, 116)" class="key keypos-17">
<rect rx="6" ry="6" x="-31" y="-31" width="62" height="62" class="key side"/>
<rect rx="4" ry="4" x="-25" y="-29" width="50" height="50" class="key"/>
<text x="0" y="-4" class="key tap">.</text>
</g>
<g transform="translate(627, 116)" class="key keypos-18">
<rect rx="6" ry="6" x="-31" y="-31" width="62" height="62" class="key side"/>
<rect rx="4" ry="4" x="-25" y="-29" width="50" height="50" class="key"/>
<text x="0" y="-4" class="key tap">.</text>
</g>
<g transform="translate(693, 107)" class="key keypos-19">
<rect rx="6" ry="6" x="-31" y="-31" width="62" height="62" class="key side"/>
<rect rx="4" ry="4" x="-25" y="-29" width="50" height="50" class="key"/>
<text x="0" y="-4" class="key tap">4</text>
</g>
<g transform="translate(759, 99)" class="key keypos-20">
<rect rx="6" ry="6" x="-31" y="-31" width="62" height="62" class="key side"/>
<rect rx="4" ry="4" x="-25" y="-29" width="50" height="50" class="key"/>
<text x="0" y="-4" class="key tap">5</text>
</g>
<g transform="translate(825, 107)" class="key keypos-21">
<rect rx="6" ry="6" x="-31" y="-31" width="62" height="62" class="key side"/>
<rect rx="4" ry="4" x="-25" y="-29" width="50" height="50" class="key"/>
<text x="0" y="-4" class="key tap">6</text>
</g>
<g transform="translate(891, 124)" class="key keypos-22">
<rect rx="6" ry="6" x="-31" y="-31" width="62" height="62" class="key side"/>
<rect rx="4" ry="4" x="-25" y="-29" width="50" height="50" class="key"/>
<text x="0" y="-4" class="key tap">*</text>
</g>
<g transform="translate(957, 124)" class="key keypos-23">
<rect rx="6" ry="6" x="-31" y="-31" width="62" height="62" class="key side"/>
<rect rx="4" ry="4" x="-25" y="-29" width="50" height="50" class="key"/>
<text x="0" y="-4" class="key tap">Enter</text>
</g>
<g transform="translate(33, 190)" class="key keypos-24">
<rect rx="6" ry="6" x="-31" y="-31" width="62" height="62" class="key side"/>
<rect rx="4" ry="4" x="-25" y="-29" width="50" height="50" class="key"/>
<text x="0" y="-4" class="key tap">LShift</text>
</g>
<g transform="translate(99, 190)" class="key keypos-25">
<rect rx="6" ry="6" x="-31" y="-31" width="62" height="62" class="key side"/>
<rect rx="4" ry="4" x="-25" y="-29" width="50" height="50" class="key"/>
<text x="0" y="-4" class="key tap">F12</text>
</g>
<g transform="translate(165, 173)" class="key keypos-26">
<rect rx="6" ry="6" x="-31" y="-31" width="62" height="62" class="key side"/>
<rect rx="4" ry="4" x="-25" y="-29" width="50" height="50" class="key"/>
<text x="0" y="-4" class="key tap">F1</text>
</g>
<g transform="translate(231, 165)" class="key keypos-27">
<rect rx="6" ry="6" x="-31" y="-31" width="62" height="62" class="key side"/>
<rect rx="4" ry="4" x="-25" y="-29" width="50" height="50" class="key"/>
<text x="0" y="-4" class="key tap">F2</text>
</g>
<g transform="translate(297, 173)" class="key keypos-28">
<rect rx="6" ry="6" x="-31" y="-31" width="62" height="62" class="key side"/>
<rect rx="4" ry="4" x="-25" y="-29" width="50" height="50" class="key"/>
<text x="0" y="-4" class="key tap">F3</text>
</g>
<g transform="translate(363, 182)" class="key keypos-29">
<rect rx="6" ry="6" x="-31" y="-31" width="62" height="62" class="key side"/>
<rect rx="4" ry="4" x="-25" y="-29" width="50" height="50" class="key"/>
<text x="0" y="-4" class="key tap">=</text>
</g>
<g transform="translate(627, 182)" class="key keypos-30">
<rect rx="6" ry="6" x="-31" y="-31" width="62" height="62" class="key side"/>
<rect rx="4" ry="4" x="-25" y="-29" width="50" height="50" class="key"/>
<text x="0" y="-4" class="key tap">0</text>
</g>
<g transform="translate(693, 173)" class="key keypos-31">
<rect rx="6" ry="6" x="-31" y="-31" width="62" height="62" class="key side"/>
<rect rx="4" ry="4" x="-25" y="-29" width="50" height="50" class="key"/>
<text x="0" y="-4" class="key tap">1</text>
</g>
<g transform="translate(759, 165)" class="key keypos-32">
<rect rx="6" ry="6" x="-31" y="-31" width="62" height="62" class="key side"/>
<rect rx="4" ry="4" x="-25" y="-29" width="50" height="50" class="key"/>
<text x="0" y="-4" class="key tap">2</text>
</g>
<g transform="translate(825, 173)" class="key keypos-33">
<rect rx="6" ry="6" x="-31" y="-31" width="62" height="62" class="key side"/>
<rect rx="4" ry="4" x="-25" y="-29" width="50" height="50" class="key"/>
<text x="0" y="-4" class="key tap">3</text>
</g>
<g transform="translate(891, 190)" class="key keypos-34">
<rect rx="6" ry="6" x="-31" y="-31" width="62" height="62" class="key side"/>
<rect rx="4" ry="4" x="-25" y="-29" width="50" height="50" class="key"/>
<text x="0" y="-4" class="key tap">/</text>
</g>
<g transform="translate(957, 190)" class="key keypos-35">
<rect rx="6" ry="6" x="-31" y="-31" width="62" height="62" class="key side"/>
<rect rx="4" ry="4" x="-25" y="-29" width="50" height="50" class="key"/>
<text x="0" y="-4" class="key tap">RShift</text>
</g>
<g transform="translate(264, 241)" class="key keypos-36">
<rect rx="6" ry="6" x="-31" y="-31" width="62" height="62" class="key side"/>
<rect rx="4" ry="4" x="-25" y="-29" width="50" height="50" class="key"/>
<text x="0" y="-4" class="key tap">LGui</text>
</g>
<g transform="translate(337, 251) rotate(15.0)" class="key keypos-37">
<rect rx="6" ry="6" x="-31" y="-31" width="62" height="62" class="key side"/>
<rect rx="4" ry="4" x="-25" y="-29" width="50" height="50" class="key"/>
<text x="0" y="-4" class="key tap">Space</text>
</g>
<g transform="translate(414, 264) rotate(30.0)" class="key keypos-38">
<rect rx="6" ry="6" x="-31" y="-48" width="62" height="95" class="key side"/>
<rect rx="4" ry="4" x="-25" y="-46" width="50" height="83" class="key"/>
<text x="0" y="-4" class="key tap">
<tspan x="0" dy="-0.6em">MO</tspan><tspan x="0" dy="1.2em">L0</tspan>
</text>
</g>
<g transform="translate(576, 264) rotate(-30.0)" class="key keypos-39">
<rect rx="6" ry="6" x="-31" y="-48" width="62" height="95" class="key side"/>
<rect rx="4" ry="4" x="-25" y="-46" width="50" height="83" class="key"/>
<text x="0" y="-4" class="key tap">
<tspan x="0" dy="-0.6em">TO</tspan><tspan x="0" dy="1.2em">L0</tspan>
</text>
</g>
<g transform="translate(653, 251) rotate(-15.0)" class="key keypos-40">
<rect rx="6" ry="6" x="-31" y="-31" width="62" height="62" class="key side"/>
<rect rx="4" ry="4" x="-25" y="-29" width="50" height="50" class="key"/>
<text x="0" y="-4" class="key tap">Bksp</text>
</g>
<g transform="translate(726, 241)" class="key keypos-41">
<rect rx="6" ry="6" x="-31" y="-31" width="62" height="62" class="key side"/>
<rect rx="4" ry="4" x="-25" y="-29" width="50" height="50" class="key"/>
<text x="0" y="-4" class="key tap">RGui</text>
</g>
<g class="combo combopos-0">
<path d="M495,264 l-59,0" class="combo"/>
<path d="M495,264 l59,0" class="combo"/>
<rect rx="6" ry="6" x="476" y="246" width="38" height="36" class="combo"/>
<text x="495" y="264" class="combo tap">
<tspan x="495" dy="-0.6em">TO</tspan><tspan x="495" dy="1.2em">L2</tspan>
</text>
</g>
</g>
</g>
<text x="1020.0" y="1167.0" class="footer">Created with <a href="https://github.com/caksoylar/keymap-drawer">keymap-drawer</a></text></svg>
