<svg width="1070" height="436" viewBox="0 0 1070 436" class="keymap" xmlns="http://www.w3.org/2000/svg" xmlns:xlink="http://www.w3.org/1999/xlink">
<defs>/* start glyphs */
<svg id="mdi.apple-keyboard-command">
<svg xmlns="http://www.w3.org/2000/svg" viewBox="0 0 24 24"><title>apple-keyboard-command</title><path d="M6,2A4,4 0 0,1 10,6V8H14V6A4,4 0 0,1 18,2A4,4 0 0,1 22,6A4,4 0 0,1 18,10H16V14H18A4,4 0 0,1 22,18A4,4 0 0,1 18,22A4,4 0 0,1 14,18V16H10V18A4,4 0 0,1 6,22A4,4 0 0,1 2,18A4,4 0 0,1 6,14H8V10H6A4,4 0 0,1 2,6A4,4 0 0,1 6,2M16,18A2,2 0 0,0 18,20A2,2 0 0,0 20,18A2,2 0 0,0 18,16H16V18M14,10H10V14H14V10M6,16A2,2 0 0,0 4,18A2,2 0 0,0 6,20A2,2 0 0,0 8,18V16H6M8,6A2,2 0 0,0 6,4A2,2 0 0,0 4,6A2,2 0 0,0 6,8H8V6M18,8A2,2 0 0,0 20,6A2,2 0 0,0 18,4A2,2 0 0,0 16,6V8H18Z" /></svg>

</svg>
<svg id="mdi.apple-keyboard-control">
<svg xmlns="http://www.w3.org/2000/svg" viewBox="0 0 24 24"><title>apple-keyboard-control</title><path d="M19.78,11.78L18.36,13.19L12,6.83L5.64,13.19L4.22,11.78L12,4L19.78,11.78Z" /></svg>

</svg>
<svg id="mdi.apple-keyboard-shift">
<svg xmlns="http://www.w3.org/2000/svg" viewBox="0 0 24 24"><title>apple-keyboard-shift</title><path d="M15,18V12H17.17L12,6.83L6.83,12H9V18H15M12,4L22,14H17V20H7V14H2L12,4Z" /></svg>

</svg>
<svg id="mdi.backspace-outline">
<svg xmlns="http://www.w3.org/2000/svg" viewBox="0 0 24 24"><title>backspace-outline</title><path d="M19,15.59L17.59,17L14,13.41L10.41,17L9,15.59L12.59,12L9,8.41L10.41,7L14,10.59L17.59,7L19,8.41L15.41,12L19,15.59M22,3A2,2 0 0,1 24,5V19A2,2 0 0,1 22,21H7C6.31,21 5.77,20.64 5.41,20.11L0,12L5.41,3.88C5.77,3.35 6.31,3 7,3H22M22,5H7L2.28,12L7,19H22V5Z" /></svg>

</svg>
</defs>/* end glyphs */
<style>/* inherit to force styles through use tags */
svg path {
    fill: inherit;
}

/* font and background color specifications */
svg.keymap {
    font-family: SFMono-Regular,Consolas,Liberation Mono,Menlo,monospace;
    font-size: 14px;
    font-kerning: normal;
    text-rendering: optimizeLegibility;
    fill: #24292e;
}

/* default key styling */
rect.key {
    fill: #f6f8fa;
}

rect.key, rect.combo {
    stroke: #c9cccf;
    stroke-width: 1;
}

/* default key side styling, only used is draw_key_sides is set */
rect.side {
    filter: brightness(90%);
}

/* color accent for combo boxes */
rect.combo, rect.combo-separate {
    fill: #cdf;
}

/* color accent for held keys */
rect.held, rect.combo.held {
    fill: #fdd;
}

/* color accent for ghost (optional) keys */
rect.ghost, rect.combo.ghost {
    stroke-dasharray: 4, 4;
    stroke-width: 2;
}

text {
    text-anchor: middle;
    dominant-baseline: middle;
}

/* styling for layer labels */
text.label {
    font-weight: bold;
    text-anchor: start;
    stroke: white;
    stroke-width: 4;
    paint-order: stroke;
}

/* styling for optional footer */
text.footer {
    text-anchor: end;
    dominant-baseline: auto;
    stroke: white;
    stroke-width: 4;
    paint-order: stroke;
}

/* styling for combo tap, and key hold/shifted label text */
text.combo, text.hold, text.shifted {
    font-size: 11px;
}

text.hold {
    text-anchor: middle;
    dominant-baseline: auto;
}

text.shifted {
    text-anchor: middle;
    dominant-baseline: hanging;
}

text.layer-activator {
    text-decoration: underline;
}

/* styling for hold/shifted label text in combo box */
text.combo.hold, text.combo.shifted {
    font-size: 8px;
}

/* lighter symbol for transparent keys */
text.trans {
    fill: #7b7e81;
}

/* styling for combo dendrons */
path.combo {
    stroke-width: 1;
    stroke: gray;
    fill: none;
}

/* Start Tabler Icons Cleanup */
/* cannot use height/width with glyphs */
.icon-tabler > path {
    fill: inherit;
    stroke: inherit;
    stroke-width: 2;
}
/* hide tabler's default box */
.icon-tabler > path[stroke="none"][fill="none"] {
    visibility: hidden;
}
/* End Tabler Icons Cleanup */

@media (prefers-color-scheme: dark) {
svg.keymap { fill: #d1d6db; }
rect.key { fill: #3f4750; }
rect.key, rect.combo { stroke: #60666c; }
rect.combo, rect.combo-separate { fill: #1f3d7a; }
rect.held, rect.combo.held { fill: #854747; }
text.label, text.footer { stroke: black; }
text.trans { fill: #7e8184; }
path.combo { stroke: #7f7f7f; }

}

svg.keymap { background-color: #FFF; }</style>
<g transform="translate(40, 0)" class="layer-L2">
<text x="0" y="28" class="label" id="L2">L2:</text>
<g transform="translate(0, 56)">
<g transform="translate(33, 58)" class="key keypos-0">
<rect rx="6" ry="6" x="-31" y="-31" width="62" height="62" class="key side"/>
<rect rx="4" ry="4" x="-25" y="-29" width="50" height="50" class="key"/>
<text x="0" y="-4" class="key tap">Esc</text>
</g>
<g transform="translate(99, 58)" class="key keypos-1">
<rect rx="6" ry="6" x="-31" y="-31" width="62" height="62" class="key side"/>
<rect rx="4" ry="4" x="-25" y="-29" width="50" height="50" class="key"/>
<text x="0" y="-4" class="key tap">F10</text>
</g>
<g transform="translate(165, 41)" class="key keypos-2">
<rect rx="6" ry="6" x="-31" y="-31" width="62" height="62" class="key side"/>
<rect rx="4" ry="4" x="-25" y="-29" width="50" height="50" class="key"/>
<text x="0" y="-4" class="key tap">F7</text>
</g>
<g transform="translate(231, 33)" class="key keypos-3">
<rect rx="6" ry="6" x="-31" y="-31" width="62" height="62" class="key side"/>
<rect rx="4" ry="4" x="-25" y="-29" width="50" height="50" class="key"/>
<text x="0" y="-4" class="key tap">F8</text>
</g>
<g transform="translate(297, 41)" class="key keypos-4">
<rect rx="6" ry="6" x="-31" y="-31" width="62" height="62" class="key side"/>
<rect rx="4" ry="4" x="-25" y="-29" width="50" height="50" class="key"/>
<text x="0" y="-4" class="key tap">F9</text>
</g>
<g transform="translate(363, 50)" class="key keypos-5">
<rect rx="6" ry="6" x="-31" y="-31" width="62" height="62" class="key side"/>
<rect rx="4" ry="4" x="-25" y="-29" width="50" height="50" class="key"/>
<text x="0" y="-4" class="key tap">,</text>
</g>
<g transform="translate(627, 50)" class="key keypos-6">
<rect rx="6" ry="6" x="-31" y="-31" width="62" height="62" class="key side"/>
<rect rx="4" ry="4" x="-25" y="-29" width="50" height="50" class="key"/>
<text x="0" y="-4" class="key tap">,</text>
</g>
<g transform="translate(693, 41)" class="key keypos-7">
<rect rx="6" ry="6" x="-31" y="-31" width="62" height="62" class="key side"/>
<rect rx="4" ry="4" x="-25" y="-29" width="50" height="50" class="key"/>
<text x="0" y="-4" class="key tap">7</text>
</g>
<g transform="translate(759, 33)" class="key keypos-8">
<rect rx="6" ry="6" x="-31" y="-31" width="62" height="62" class="key side"/>
<rect rx="4" ry="4" x="-25" y="-29" width="50" height="50" class="key"/>
<text x="0" y="-4" class="key tap">8</text>
</g>
<g transform="translate(825, 41)" class="key keypos-9">
<rect rx="6" ry="6" x="-31" y="-31" width="62" height="62" class="key side"/>
<rect rx="4" ry="4" x="-25" y="-29" width="50" height="50" class="key"/>
<text x="0" y="-4" class="key tap">9</text>
</g>
<g transform="translate(891, 58)" class="key keypos-10">
<rect rx="6" ry="6" x="-31" y="-31" width="62" height="62" class="key side"/>
<rect rx="4" ry="4" x="-25" y="-29" width="50" height="50" class="key"/>
<text x="0" y="-4" class="key tap">+</text>
</g>
<g transform="translate(957, 58)" class="key keypos-11">
<rect rx="6" ry="6" x="-31" y="-31" width="62" height="62" class="key side"/>
<rect rx="4" ry="4" x="-25" y="-29" width="50" height="50" class="key"/>
<text x="0" y="-4" class="key tap">-</text>
</g>
<g transform="translate(33, 124)" class="key keypos-12">
<rect rx="6" ry="6" x="-31" y="-31" width="62" height="62" class="key side"/>
<rect rx="4" ry="4" x="-25" y="-29" width="50" height="50" class="key"/>
<use href="#mdi.apple-keyboard-control" xlink:href="#mdi.apple-keyboard-control" x="-11" y="-15" height="22" width="22.0" class="key tap glyph mdi.apple-keyboard-control"/>
</g>
<g transform="translate(99, 124)" class="key keypos-13">
<rect rx="6" ry="6" x="-31" y="-31" width="62" height="62" class="key side"/>
<rect rx="4" ry="4" x="-25" y="-29" width="50" height="50" class="key"/>
<text x="0" y="-4" class="key tap">F11</text>
</g>
<g transform="translate(165, 107)" class="key keypos-14">
<rect rx="6" ry="6" x="-31" y="-31" width="62" height="62" class="key side"/>
<rect rx="4" ry="4" x="-25" y="-29" width="50" height="50" class="key"/>
<text x="0" y="-4" class="key tap">F4</text>
</g>
<g transform="translate(231, 99)" class="key keypos-15">
<rect rx="6" ry="6" x="-31" y="-31" width="62" height="62" class="key side"/>
<rect rx="4" ry="4" x="-25" y="-29" width="50" height="50" class="key"/>
<text x="0" y="-4" class="key tap">F5</text>
</g>
<g transform="translate(297, 107)" class="key keypos-16">
<rect rx="6" ry="6" x="-31" y="-31" width="62" height="62" class="key side"/>
<rect rx="4" ry="4" x="-25" y="-29" width="50" height="50" class="key"/>
<text x="0" y="-4" class="key tap">F6</text>
</g>
<g transform="translate(363, 116)" class="key keypos-17">
<rect rx="6" ry="6" x="-31" y="-31" width="62" height="62" class="key side"/>
<rect rx="4" ry="4" x="-25" y="-29" width="50" height="50" class="key"/>
<text x="0" y="-4" class="key tap">.</text>
</g>
<g transform="translate(627, 116)" class="key keypos-18">
<rect rx="6" ry="6" x="-31" y="-31" width="62" height="62" class="key side"/>
<rect rx="4" ry="4" x="-25" y="-29" width="50" height="50" class="key"/>
<text x="0" y="-4" class="key tap">.</text>
</g>
<g transform="translate(693, 107)" class="key keypos-19">
<rect rx="6" ry="6" x="-31" y="-31" width="62" height="62" class="key side"/>
<rect rx="4" ry="4" x="-25" y="-29" width="50" height="50" class="key"/>
<text x="0" y="-4" class="key tap">4</text>
</g>
<g transform="translate(759, 99)" class="key keypos-20">
<rect rx="6" ry="6" x="-31" y="-31" width="62" height="62" class="key side"/>
<rect rx="4" ry="4" x="-25" y="-29" width="50" height="50" class="key"/>
<text x="0" y="-4" class="key tap">5</text>
</g>
<g transform="translate(825, 107)" class="key keypos-21">
<rect rx="6" ry="6" x="-31" y="-31" width="62" height="62" class="key side"/>
<rect rx="4" ry="4" x="-25" y="-29" width="50" height="50" class="key"/>
<text x="0" y="-4" class="key tap">6</text>
</g>
<g transform="translate(891, 124)" class="key keypos-22">
<rect rx="6" ry="6" x="-31" y="-31" width="62" height="62" class="key side"/>
<rect rx="4" ry="4" x="-25" y="-29" width="50" height="50" class="key"/>
<text x="0" y="-4" class="key tap">*</text>
</g>
<g transform="translate(957, 124)" class="key keypos-23">
<rect rx="6" ry="6" x="-31" y="-31" width="62" height="62" class="key side"/>
<rect rx="4" ry="4" x="-25" y="-29" width="50" height="50" class="key"/>
<text x="0" y="-4" class="key tap">Enter</text>
</g>
<g transform="translate(33, 190)" class="key keypos-24">
<rect rx="6" ry="6" x="-31" y="-31" width="62" height="62" class="key side"/>
<rect rx="4" ry="4" x="-25" y="-29" width="50" height="50" class="key"/>
<use href="#mdi.apple-keyboard-shift" xlink:href="#mdi.apple-keyboard-shift" x="-11" y="-15" height="22" width="22.0" class="key tap glyph mdi.apple-keyboard-shift"/>
</g>
<g transform="translate(99, 190)" class="key keypos-25">
<rect rx="6" ry="6" x="-31" y="-31" width="62" height="62" class="key side"/>
<rect rx="4" ry="4" x="-25" y="-29" width="50" height="50" class="key"/>
<text x="0" y="-4" class="key tap">F12</text>
</g>
<g transform="translate(165, 173)" class="key keypos-26">
<rect rx="6" ry="6" x="-31" y="-31" width="62" height="62" class="key side"/>
<rect rx="4" ry="4" x="-25" y="-29" width="50" height="50" class="key"/>
<text x="0" y="-4" class="key tap">F1</text>
</g>
<g transform="translate(231, 165)" class="key keypos-27">
<rect rx="6" ry="6" x="-31" y="-31" width="62" height="62" class="key side"/>
<rect rx="4" ry="4" x="-25" y="-29" width="50" height="50" class="key"/>
<text x="0" y="-4" class="key tap">F2</text>
</g>
<g transform="translate(297, 173)" class="key keypos-28">
<rect rx="6" ry="6" x="-31" y="-31" width="62" height="62" class="key side"/>
<rect rx="4" ry="4" x="-25" y="-29" width="50" height="50" class="key"/>
<text x="0" y="-4" class="key tap">F3</text>
</g>
<g transform="translate(363, 182)" class="key keypos-29">
<rect rx="6" ry="6" x="-31" y="-31" width="62" height="62" class="key side"/>
<rect rx="4" ry="4" x="-25" y="-29" width="50" height="50" class="key"/>
<text x="0" y="-4" class="key tap">=</text>
</g>
<g transform="translate(627, 182)" class="key keypos-30">
<rect rx="6" ry="6" x="-31" y="-31" width="62" height="62" class="key side"/>
<rect rx="4" ry="4" x="-25" y="-29" width="50" height="50" class="key"/>
<text x="0" y="-4" class="key tap">0</text>
</g>
<g transform="translate(693, 173)" class="key keypos-31">
<rect rx="6" ry="6" x="-31" y="-31" width="62" height="62" class="key side"/>
<rect rx="4" ry="4" x="-25" y="-29" width="50" height="50" class="key"/>
<text x="0" y="-4" class="key tap">1</text>
</g>
<g transform="translate(759, 165)" class="key keypos-32">
<rect rx="6" ry="6" x="-31" y="-31" width="62" height="62" class="key side"/>
<rect rx="4" ry="4" x="-25" y="-29" width="50" height="50" class="key"/>
<text x="0" y="-4" class="key tap">2</text>
</g>
<g transform="translate(825, 173)" class="key keypos-33">
<rect rx="6" ry="6" x="-31" y="-31" width="62" height="62" class="key side"/>
<rect rx="4" ry="4" x="-25" y="-29" width="50" height="50" class="key"/>
<text x="0" y="-4" class="key tap">3</text>
</g>
<g transform="translate(891, 190)" class="key keypos-34">
<rect rx="6" ry="6" x="-31" y="-31" width="62" height="62" class="key side"/>
<rect rx="4" ry="4" x="-25" y="-29" width="50" height="50" class="key"/>
<text x="0" y="-4" class="key tap">/</text>
</g>
<g transform="translate(957, 190)" class="key keypos-35">
<rect rx="6" ry="6" x="-31" y="-31" width="62" height="62" class="key side"/>
<rect rx="4" ry="4" x="-25" y="-29" width="50" height="50" class="key"/>
<use href="#mdi.apple-keyboard-shift" xlink:href="#mdi.apple-keyboard-shift" x="-11" y="-15" height="22" width="22.0" class="key tap glyph mdi.apple-keyboard-shift"/>
</g>
<g transform="translate(264, 241)" class="key keypos-36">
<rect rx="6" ry="6" x="-31" y="-31" width="62" height="62" class="key side"/>
<rect rx="4" ry="4" x="-25" y="-29" width="50" height="50" class="key"/>
<use href="#mdi.apple-keyboard-command" xlink:href="#mdi.apple-keyboard-command" x="-11" y="-15" height="22" width="22.0" class="key tap glyph mdi.apple-keyboard-command"/>
</g>
<g transform="translate(337, 251) rotate(15.0)" class="key keypos-37">
<rect rx="6" ry="6" x="-31" y="-31" width="62" height="62" class="key side"/>
<rect rx="4" ry="4" x="-25" y="-29" width="50" height="50" class="key"/>
<text x="0" y="-4" class="key tap">Space</text>
</g>
<g transform="translate(414, 264) rotate(30.0)" class="key keypos-38">
<rect rx="6" ry="6" x="-31" y="-48" width="62" height="95" class="key side"/>
<rect rx="4" ry="4" x="-25" y="-46" width="50" height="83" class="key"/>
<text x="0" y="-4" class="key tap">
<tspan x="0" dy="-0.6em">TO</tspan><tspan x="0" dy="1.2em">L0</tspan>
</text>
</g>
<g transform="translate(576, 264) rotate(-30.0)" class="key keypos-39">
<rect rx="6" ry="6" x="-31" y="-48" width="62" height="95" class="key side"/>
<rect rx="4" ry="4" x="-25" y="-46" width="50" height="83" class="key"/>
<text x="0" y="-4" class="key tap">
<tspan x="0" dy="-0.6em">TO</tspan><tspan x="0" dy="1.2em">L0</tspan>
</text>
</g>
<g transform="translate(653, 251) rotate(-15.0)" class="key keypos-40">
<rect rx="6" ry="6" x="-31" y="-31" width="62" height="62" class="key side"/>
<rect rx="4" ry="4" x="-25" y="-29" width="50" height="50" class="key"/>
<use href="#mdi.backspace-outline" xlink:href="#mdi.backspace-outline" x="-11" y="-15" height="22" width="22.0" class="key tap glyph mdi.backspace-outline"/>
</g>
<g transform="translate(726, 241)" class="key keypos-41">
<rect rx="6" ry="6" x="-31" y="-31" width="62" height="62" class="key side"/>
<rect rx="4" ry="4" x="-25" y="-29" width="50" height="50" class="key"/>
<use href="#mdi.apple-keyboard-command" xlink:href="#mdi.apple-keyboard-command" x="-11" y="-15" height="22" width="22.0" class="key tap glyph mdi.apple-keyboard-command"/>
</g>
</g>
</g>
<text x="1030.0" y="408.0" class="footer">Created with <a href="https://github.com/caksoylar/keymap-drawer">keymap-drawer</a></text></svg>
